<svg width="466" height="393" fill="none" xmlns="http://www.w3.org/2000/svg"><g clip-path="url(#a)" filter="url(#b)"><path d="M330.799 27.298c15.432 6.37 30.006 14.015 44.152 22.933 94.732 58.606 154.744 172.844 137.169 281.987-18.004 110.841-136.312 268.396-253.334 291.329-38.151 7.644-77.158-2.973-114.451-14.439C81.752 589.997 23.026 558.996-38.7 541.159c-24.005-6.795-50.152-8.493-73.3.85-40.293 16.137-50.152 50.961-67.298 86.209-19.29 39.92-51.867 73.47-91.303 94.279-81.016 42.468-185.607 22.508-260.622-23.357-111.45-67.949-151.314-201.723-114.45-323.181 9.43-31.426 24.433-62.427 49.295-84.511 42.437-38.221 106.306-45.016 162.031-31.001 38.579 9.767 73.728 28.453 107.163 48.838 27.434 16.987 52.725 40.344 86.588 40.344 68.585.425 89.589-87.059 111.45-135.897 28.72-64.551 77.158-121.033 137.17-158.83C104.898-6.675 225.35-17.292 330.798 27.299Z" fill="url(#c)"/><path d="M330.836 27.557c15.424 6.368 29.991 14.011 44.13 22.927 94.688 58.594 154.672 172.809 137.105 281.93-17.995 110.818-136.248 268.342-253.216 291.27-38.132 7.642-77.121-2.972-114.397-14.436-62.554-19.107-121.252-50.102-182.95-67.935-23.992-6.794-50.128-8.492-73.265.849-40.274 16.135-50.129 50.951-67.267 86.192-19.28 39.912-51.843 73.455-91.26 94.26-80.978 42.459-185.521 22.503-260.5-23.353-111.398-67.935-151.244-201.681-114.397-323.114 9.426-31.42 24.422-62.415 49.272-84.494 42.417-38.214 106.256-45.007 161.955-30.995 38.561 9.765 73.694 28.447 107.114 48.828 27.421 16.983 52.699 40.336 86.547 40.336 68.553.424 89.547-87.041 111.398-135.87C-100.188 149.414-51.773 92.944 8.21 55.155c96.831-61.566 217.226-72.18 322.626-27.598Z" fill="url(#d)"/><path d="M-678.68 899.588c-193.751-144.815-80.587-463.749 105.878-561.425 69.87-36.522 151.314-50.537 229.758-40.344 70.728 9.342 159.03 33.124 231.473 5.945 54.867-20.809 80.158-72.195 108.878-118.91C77.037 54.902 278.075 30.696 377.95 153.853c36.864 45.44 51.867 108.717 33.863 164.35-42.436 129.102-184.749 73.894-265.336 143.117-32.149 27.604-40.722 82.812-59.583 119.759-19.29 37.796-42.865 73.894-68.156 108.293-53.153 72.62-117.88 138.87-192.465 190.256C-322.469 982.4-508.504 1012.98-665.82 908.931c-4.287-2.973-8.573-5.946-12.86-9.343Z" fill="url(#e)"/><path d="M-678.68 899.588c-193.751-144.815-80.587-463.749 105.878-561.425 69.87-36.522 151.314-50.537 229.758-40.344 70.728 9.342 159.03 33.124 231.473 5.945 54.867-20.809 80.158-72.195 108.878-118.91C77.037 54.902 278.075 30.696 377.95 153.853c36.864 45.44 51.867 108.717 33.863 164.35-42.436 129.102-184.749 73.894-265.336 143.117-32.149 27.604-40.722 82.812-59.583 119.759-19.29 37.796-42.865 73.894-68.156 108.293-53.153 72.62-117.88 138.87-192.465 190.256C-322.469 982.4-508.504 1012.98-665.82 908.931c-4.287-2.973-8.573-5.946-12.86-9.343Z" fill="url(#f)"/></g><defs><radialGradient id="d" cx="0" cy="0" r="1" gradientUnits="userSpaceOnUse" gradientTransform="rotate(79.626 35.873 -97.476) scale(1313.6 1235.52)"><stop stop-color="#FEBB40"/><stop offset=".558" stop-color="#EC4C76"/><stop offset=".973" stop-color="#D60B52"/></radialGradient><radialGradient id="f" cx="0" cy="0" r="1" gradientUnits="userSpaceOnUse" gradientTransform="rotate(-122.724 85.866 47.275) scale(1401.84 2365.81)"><stop stop-color="#FEBB40"/><stop offset=".558" stop-color="#EC4C76"/><stop offset=".973" stop-color="#D60B52"/></radialGradient><linearGradient id="c" x1="-724.634" y1="760.404" x2="892.396" y2="-131" gradientUnits="userSpaceOnUse"><stop stop-color="#FF9370"/><stop offset="1" stop-color="#FFDF00"/></linearGradient><linearGradient id="e" x1="396.451" y1="-466.926" x2="-631.497" y2="1192.7" gradientUnits="userSpaceOnUse"><stop stop-color="#FFDF00"/><stop offset="1" stop-color="#FF9370"/></linearGradient><clipPath id="a"><path fill="#fff" d="M4 0h511v393H4z"/></clipPath><filter id="b" x="0" y="0" width="519" height="401" filterUnits="userSpaceOnUse" color-interpolation-filters="sRGB"><feFlood flood-opacity="0" result="BackgroundImageFix"/><feColorMatrix in="SourceAlpha" values="0 0 0 0 0 0 0 0 0 0 0 0 0 0 0 0 0 0 127 0" result="hardAlpha"/><feOffset dy="4"/><feGaussianBlur stdDeviation="2"/><feComposite in2="hardAlpha" operator="out"/><feColorMatrix values="0 0 0 0 0 0 0 0 0 0 0 0 0 0 0 0 0 0 0.25 0"/><feBlend in2="BackgroundImageFix" result="effect1_dropShadow_101_590"/><feBlend in="SourceGraphic" in2="effect1_dropShadow_101_590" result="shape"/></filter></defs></svg>