<svg width="93" height="33" fill="none" xmlns="http://www.w3.org/2000/svg"><path d="M6.456 8.672c.533-.832 1.27-1.504 2.208-2.016.939-.512 2.037-.768 3.296-.768 1.472 0 2.805.373 4 1.12 1.195.747 2.133 1.813 2.816 3.2.704 1.387 1.056 2.997 1.056 4.832s-.352 3.456-1.056 4.864c-.683 1.387-1.621 2.464-2.816 3.232-1.195.747-2.528 1.12-4 1.12-1.237 0-2.336-.256-3.296-.768-.939-.512-1.675-1.173-2.208-1.984v11.008H.984V6.144h5.472v2.528Zm7.808 6.368c0-1.365-.384-2.432-1.152-3.2-.747-.79-1.675-1.184-2.784-1.184-1.088 0-2.016.395-2.784 1.184-.747.79-1.12 1.867-1.12 3.232 0 1.365.373 2.443 1.12 3.232.768.79 1.696 1.184 2.784 1.184 1.088 0 2.016-.395 2.784-1.184.768-.81 1.152-1.899 1.152-3.264Zm27.51-.256c0 .512-.031 1.045-.095 1.6H29.295c.085 1.11.437 1.963 1.056 2.56.64.576 1.418.864 2.336.864 1.365 0 2.314-.576 2.848-1.728h5.824a7.89 7.89 0 0 1-1.632 3.168c-.768.939-1.739 1.675-2.912 2.208-1.174.533-2.486.8-3.936.8-1.75 0-3.307-.373-4.672-1.12a7.967 7.967 0 0 1-3.2-3.2c-.768-1.387-1.152-3.008-1.152-4.864 0-1.856.373-3.477 1.12-4.864a7.967 7.967 0 0 1 3.2-3.2c1.365-.747 2.933-1.12 4.704-1.12 1.728 0 3.264.363 4.608 1.088a7.708 7.708 0 0 1 3.136 3.104c.768 1.344 1.152 2.912 1.152 4.704Zm-5.6-1.44c0-.939-.32-1.685-.96-2.24-.64-.555-1.44-.832-2.4-.832-.917 0-1.695.267-2.335.8-.619.533-1.003 1.29-1.152 2.272h6.848ZM67.615.32V24H62.14V.32h5.473Zm24.445 5.824-11.2 26.336h-5.888l4.096-9.088-7.264-17.248h6.112l4.128 11.168 4.096-11.168h5.92Z" fill="#111"/><path d="M56.853 19.36V24H54.07c-1.983 0-3.53-.48-4.64-1.44-1.109-.981-1.663-2.57-1.663-4.768v-7.104H45.59V6.144h2.175V1.792h5.472v4.352h3.584v4.544h-3.584v7.168c0 .533.128.917.384 1.152.256.235.683.352 1.28.352h1.952Z" fill="#F59256"/></svg>